<svg xmlns="http://www.w3.org/2000/svg" viewBox="0 0 512 512">
  <!-- GENERATED by scripts/make-figure.mjs (variant: ship) — do not hand-edit; regenerate, then
       run scripts/make-icons.sh. The curve is exactly what the app plots: the f0 phasor composited
       with the 0.4-weighted 2*f0 phasor. A limacon (ADDENDUM section 4), drawn with a decay trail
       because motion, not shape, is what the figure means. -->
  <defs>
    <radialGradient id="glow" cx="50%" cy="50%" r="50%">
      <stop offset="0%" stop-color="#2ee6a8" stop-opacity=".22"/>
      <stop offset="100%" stop-color="#2ee6a8" stop-opacity="0"/>
    </radialGradient>
  </defs>
  <rect width="512" height="512" rx="112" fill="#0e1413"/>
  <circle cx="256" cy="256" r="205" fill="url(#glow)"/>
  <g fill="none">
    <path d="M426.0,256.0L425.9,250.3" stroke="#2ee6a8" stroke-width="9.1" stroke-linecap="round" opacity="0.134"/>
    <path d="M425.9,250.3L425.6,244.6" stroke="#2ee6a8" stroke-width="9.3" stroke-linecap="round" opacity="0.137"/>
    <path d="M425.6,244.6L425.0,238.9" stroke="#2ee6a8" stroke-width="9.4" stroke-linecap="round" opacity="0.141"/>
    <path d="M425.0,238.9L424.3,233.2" stroke="#2ee6a8" stroke-width="9.5" stroke-linecap="round" opacity="0.145"/>
    <path d="M424.3,233.2L423.3,227.6" stroke="#2ee6a8" stroke-width="9.6" stroke-linecap="round" opacity="0.148"/>
    <path d="M423.3,227.6L422.1,222.0" stroke="#2ee6a8" stroke-width="9.8" stroke-linecap="round" opacity="0.152"/>
    <path d="M422.1,222.0L420.7,216.5" stroke="#2ee6a8" stroke-width="9.9" stroke-linecap="round" opacity="0.155"/>
    <path d="M420.7,216.5L419.1,211.0" stroke="#2ee6a8" stroke-width="10.0" stroke-linecap="round" opacity="0.159"/>
    <path d="M419.1,211.0L417.4,205.6" stroke="#2ee6a8" stroke-width="10.2" stroke-linecap="round" opacity="0.163"/>
    <path d="M417.4,205.6L415.4,200.3" stroke="#2ee6a8" stroke-width="10.3" stroke-linecap="round" opacity="0.166"/>
    <path d="M415.4,200.3L413.2,195.1" stroke="#2ee6a8" stroke-width="10.4" stroke-linecap="round" opacity="0.170"/>
    <path d="M413.2,195.1L410.8,189.9" stroke="#2ee6a8" stroke-width="10.6" stroke-linecap="round" opacity="0.174"/>
    <path d="M410.8,189.9L408.2,184.9" stroke="#2ee6a8" stroke-width="10.7" stroke-linecap="round" opacity="0.177"/>
    <path d="M408.2,184.9L405.5,180.0" stroke="#2ee6a8" stroke-width="10.8" stroke-linecap="round" opacity="0.181"/>
    <path d="M405.5,180.0L402.5,175.2" stroke="#2ee6a8" stroke-width="10.9" stroke-linecap="round" opacity="0.184"/>
    <path d="M402.5,175.2L399.4,170.5" stroke="#2ee6a8" stroke-width="11.1" stroke-linecap="round" opacity="0.188"/>
    <path d="M399.4,170.5L396.2,166.0" stroke="#2ee6a8" stroke-width="11.2" stroke-linecap="round" opacity="0.192"/>
    <path d="M396.2,166.0L392.7,161.6" stroke="#2ee6a8" stroke-width="11.3" stroke-linecap="round" opacity="0.195"/>
    <path d="M392.7,161.6L389.2,157.3" stroke="#2ee6a8" stroke-width="11.5" stroke-linecap="round" opacity="0.199"/>
    <path d="M389.2,157.3L385.4,153.2" stroke="#2ee6a8" stroke-width="11.6" stroke-linecap="round" opacity="0.203"/>
    <path d="M385.4,153.2L381.6,149.3" stroke="#2ee6a8" stroke-width="11.7" stroke-linecap="round" opacity="0.206"/>
    <path d="M381.6,149.3L377.6,145.5" stroke="#2ee6a8" stroke-width="11.8" stroke-linecap="round" opacity="0.210"/>
    <path d="M377.6,145.5L373.5,141.9" stroke="#2ee6a8" stroke-width="12.0" stroke-linecap="round" opacity="0.213"/>
    <path d="M373.5,141.9L369.2,138.4" stroke="#2ee6a8" stroke-width="12.1" stroke-linecap="round" opacity="0.217"/>
    <path d="M369.2,138.4L364.9,135.2" stroke="#2ee6a8" stroke-width="12.2" stroke-linecap="round" opacity="0.221"/>
    <path d="M364.9,135.2L360.5,132.1" stroke="#2ee6a8" stroke-width="12.4" stroke-linecap="round" opacity="0.224"/>
    <path d="M360.5,132.1L355.9,129.2" stroke="#2ee6a8" stroke-width="12.5" stroke-linecap="round" opacity="0.228"/>
    <path d="M355.9,129.2L351.3,126.4" stroke="#2ee6a8" stroke-width="12.6" stroke-linecap="round" opacity="0.232"/>
    <path d="M351.3,126.4L346.6,123.9" stroke="#2ee6a8" stroke-width="12.7" stroke-linecap="round" opacity="0.235"/>
    <path d="M346.6,123.9L341.9,121.6" stroke="#2ee6a8" stroke-width="12.9" stroke-linecap="round" opacity="0.239"/>
    <path d="M341.9,121.6L337.0,119.4" stroke="#2ee6a8" stroke-width="13.0" stroke-linecap="round" opacity="0.242"/>
    <path d="M337.0,119.4L332.2,117.5" stroke="#2ee6a8" stroke-width="13.1" stroke-linecap="round" opacity="0.246"/>
    <path d="M332.2,117.5L327.3,115.7" stroke="#2ee6a8" stroke-width="13.3" stroke-linecap="round" opacity="0.250"/>
    <path d="M327.3,115.7L322.3,114.1" stroke="#2ee6a8" stroke-width="13.4" stroke-linecap="round" opacity="0.253"/>
    <path d="M322.3,114.1L317.3,112.7" stroke="#2ee6a8" stroke-width="13.5" stroke-linecap="round" opacity="0.257"/>
    <path d="M317.3,112.7L312.4,111.6" stroke="#2ee6a8" stroke-width="13.6" stroke-linecap="round" opacity="0.261"/>
    <path d="M312.4,111.6L307.4,110.6" stroke="#2ee6a8" stroke-width="13.8" stroke-linecap="round" opacity="0.264"/>
    <path d="M307.4,110.6L302.4,109.8" stroke="#2ee6a8" stroke-width="13.9" stroke-linecap="round" opacity="0.268"/>
    <path d="M302.4,109.8L297.4,109.2" stroke="#2ee6a8" stroke-width="14.0" stroke-linecap="round" opacity="0.271"/>
    <path d="M297.4,109.2L292.4,108.8" stroke="#2ee6a8" stroke-width="14.2" stroke-linecap="round" opacity="0.275"/>
    <path d="M292.4,108.8L287.5,108.6" stroke="#2ee6a8" stroke-width="14.3" stroke-linecap="round" opacity="0.279"/>
    <path d="M287.5,108.6L282.6,108.5" stroke="#2ee6a8" stroke-width="14.4" stroke-linecap="round" opacity="0.282"/>
    <path d="M282.6,108.5L277.7,108.7" stroke="#2ee6a8" stroke-width="14.6" stroke-linecap="round" opacity="0.286"/>
    <path d="M277.7,108.7L272.9,109.0" stroke="#2ee6a8" stroke-width="14.7" stroke-linecap="round" opacity="0.289"/>
    <path d="M272.9,109.0L268.1,109.5" stroke="#2ee6a8" stroke-width="14.8" stroke-linecap="round" opacity="0.293"/>
    <path d="M268.1,109.5L263.4,110.1" stroke="#2ee6a8" stroke-width="14.9" stroke-linecap="round" opacity="0.297"/>
    <path d="M263.4,110.1L258.8,111.0" stroke="#2ee6a8" stroke-width="15.1" stroke-linecap="round" opacity="0.300"/>
    <path d="M258.8,111.0L254.2,112.0" stroke="#2ee6a8" stroke-width="15.2" stroke-linecap="round" opacity="0.304"/>
    <path d="M254.2,112.0L249.8,113.1" stroke="#2ee6a8" stroke-width="15.3" stroke-linecap="round" opacity="0.308"/>
    <path d="M249.8,113.1L245.4,114.4" stroke="#2ee6a8" stroke-width="15.5" stroke-linecap="round" opacity="0.311"/>
    <path d="M245.4,114.4L241.1,115.9" stroke="#2ee6a8" stroke-width="15.6" stroke-linecap="round" opacity="0.315"/>
    <path d="M241.1,115.9L236.9,117.5" stroke="#2ee6a8" stroke-width="15.7" stroke-linecap="round" opacity="0.319"/>
    <path d="M236.9,117.5L232.8,119.2" stroke="#2ee6a8" stroke-width="15.8" stroke-linecap="round" opacity="0.322"/>
    <path d="M232.8,119.2L228.8,121.1" stroke="#2ee6a8" stroke-width="16.0" stroke-linecap="round" opacity="0.326"/>
    <path d="M228.8,121.1L224.9,123.0" stroke="#2ee6a8" stroke-width="16.1" stroke-linecap="round" opacity="0.329"/>
    <path d="M224.9,123.0L221.2,125.1" stroke="#2ee6a8" stroke-width="16.2" stroke-linecap="round" opacity="0.333"/>
    <path d="M221.2,125.1L217.6,127.3" stroke="#2ee6a8" stroke-width="16.4" stroke-linecap="round" opacity="0.337"/>
    <path d="M217.6,127.3L214.0,129.7" stroke="#2ee6a8" stroke-width="16.5" stroke-linecap="round" opacity="0.340"/>
    <path d="M214.0,129.7L210.7,132.1" stroke="#2ee6a8" stroke-width="16.6" stroke-linecap="round" opacity="0.344"/>
    <path d="M210.7,132.1L207.4,134.6" stroke="#2ee6a8" stroke-width="16.8" stroke-linecap="round" opacity="0.348"/>
    <path d="M207.4,134.6L204.3,137.2" stroke="#2ee6a8" stroke-width="16.9" stroke-linecap="round" opacity="0.351"/>
    <path d="M204.3,137.2L201.3,139.8" stroke="#2ee6a8" stroke-width="17.0" stroke-linecap="round" opacity="0.355"/>
    <path d="M201.3,139.8L198.5,142.5" stroke="#2ee6a8" stroke-width="17.1" stroke-linecap="round" opacity="0.358"/>
    <path d="M198.5,142.5L195.8,145.3" stroke="#2ee6a8" stroke-width="17.3" stroke-linecap="round" opacity="0.362"/>
    <path d="M195.8,145.3L193.2,148.2" stroke="#2ee6a8" stroke-width="17.4" stroke-linecap="round" opacity="0.366"/>
    <path d="M193.2,148.2L190.8,151.1" stroke="#2ee6a8" stroke-width="17.5" stroke-linecap="round" opacity="0.369"/>
    <path d="M190.8,151.1L188.5,154.0" stroke="#2ee6a8" stroke-width="17.7" stroke-linecap="round" opacity="0.373"/>
    <path d="M188.5,154.0L186.4,157.0" stroke="#2ee6a8" stroke-width="17.8" stroke-linecap="round" opacity="0.377"/>
    <path d="M186.4,157.0L184.4,160.0" stroke="#2ee6a8" stroke-width="17.9" stroke-linecap="round" opacity="0.380"/>
    <path d="M184.4,160.0L182.5,163.0" stroke="#2ee6a8" stroke-width="18.0" stroke-linecap="round" opacity="0.384"/>
    <path d="M182.5,163.0L180.8,166.0" stroke="#2ee6a8" stroke-width="18.2" stroke-linecap="round" opacity="0.387"/>
    <path d="M180.8,166.0L179.2,169.1" stroke="#2ee6a8" stroke-width="18.3" stroke-linecap="round" opacity="0.391"/>
    <path d="M179.2,169.1L177.7,172.1" stroke="#2ee6a8" stroke-width="18.4" stroke-linecap="round" opacity="0.395"/>
    <path d="M177.7,172.1L176.4,175.1" stroke="#2ee6a8" stroke-width="18.6" stroke-linecap="round" opacity="0.398"/>
    <path d="M176.4,175.1L175.2,178.2" stroke="#2ee6a8" stroke-width="18.7" stroke-linecap="round" opacity="0.402"/>
    <path d="M175.2,178.2L174.1,181.2" stroke="#2ee6a8" stroke-width="18.8" stroke-linecap="round" opacity="0.405"/>
    <path d="M174.1,181.2L173.2,184.1" stroke="#2ee6a8" stroke-width="18.9" stroke-linecap="round" opacity="0.409"/>
    <path d="M173.2,184.1L172.3,187.1" stroke="#2ee6a8" stroke-width="19.1" stroke-linecap="round" opacity="0.413"/>
    <path d="M172.3,187.1L171.6,190.0" stroke="#2ee6a8" stroke-width="19.2" stroke-linecap="round" opacity="0.416"/>
    <path d="M171.6,190.0L171.0,192.9" stroke="#2ee6a8" stroke-width="19.3" stroke-linecap="round" opacity="0.420"/>
    <path d="M171.0,192.9L170.5,195.7" stroke="#2ee6a8" stroke-width="19.5" stroke-linecap="round" opacity="0.424"/>
    <path d="M170.5,195.7L170.1,198.5" stroke="#2ee6a8" stroke-width="19.6" stroke-linecap="round" opacity="0.427"/>
    <path d="M170.1,198.5L169.8,201.3" stroke="#2ee6a8" stroke-width="19.7" stroke-linecap="round" opacity="0.431"/>
    <path d="M169.8,201.3L169.6,204.0" stroke="#2ee6a8" stroke-width="19.9" stroke-linecap="round" opacity="0.434"/>
    <path d="M169.6,204.0L169.5,206.6" stroke="#2ee6a8" stroke-width="20.0" stroke-linecap="round" opacity="0.438"/>
    <path d="M169.5,206.6L169.5,209.1" stroke="#2ee6a8" stroke-width="20.1" stroke-linecap="round" opacity="0.442"/>
    <path d="M169.5,209.1L169.5,211.6" stroke="#2ee6a8" stroke-width="20.2" stroke-linecap="round" opacity="0.445"/>
    <path d="M169.5,211.6L169.7,214.1" stroke="#2ee6a8" stroke-width="20.4" stroke-linecap="round" opacity="0.449"/>
    <path d="M169.7,214.1L169.9,216.4" stroke="#2ee6a8" stroke-width="20.5" stroke-linecap="round" opacity="0.453"/>
    <path d="M169.9,216.4L170.1,218.7" stroke="#2ee6a8" stroke-width="20.6" stroke-linecap="round" opacity="0.456"/>
    <path d="M170.1,218.7L170.5,220.9" stroke="#2ee6a8" stroke-width="20.8" stroke-linecap="round" opacity="0.460"/>
    <path d="M170.5,220.9L170.8,223.1" stroke="#2ee6a8" stroke-width="20.9" stroke-linecap="round" opacity="0.464"/>
    <path d="M170.8,223.1L171.3,225.1" stroke="#2ee6a8" stroke-width="21.0" stroke-linecap="round" opacity="0.467"/>
    <path d="M171.3,225.1L171.7,227.1" stroke="#2ee6a8" stroke-width="21.1" stroke-linecap="round" opacity="0.471"/>
    <path d="M171.7,227.1L172.2,229.0" stroke="#2ee6a8" stroke-width="21.3" stroke-linecap="round" opacity="0.474"/>
    <path d="M172.2,229.0L172.8,230.8" stroke="#2ee6a8" stroke-width="21.4" stroke-linecap="round" opacity="0.478"/>
    <path d="M172.8,230.8L173.3,232.6" stroke="#2ee6a8" stroke-width="21.5" stroke-linecap="round" opacity="0.482"/>
    <path d="M173.3,232.6L173.9,234.2" stroke="#2ee6a8" stroke-width="21.7" stroke-linecap="round" opacity="0.485"/>
    <path d="M173.9,234.2L174.5,235.8" stroke="#2ee6a8" stroke-width="21.8" stroke-linecap="round" opacity="0.489"/>
    <path d="M174.5,235.8L175.1,237.3" stroke="#2ee6a8" stroke-width="21.9" stroke-linecap="round" opacity="0.492"/>
    <path d="M175.1,237.3L175.7,238.8" stroke="#2ee6a8" stroke-width="22.0" stroke-linecap="round" opacity="0.496"/>
    <path d="M175.7,238.8L176.4,240.2" stroke="#2ee6a8" stroke-width="22.2" stroke-linecap="round" opacity="0.500"/>
    <path d="M176.4,240.2L177.0,241.5" stroke="#2ee6a8" stroke-width="22.3" stroke-linecap="round" opacity="0.503"/>
    <path d="M177.0,241.5L177.6,242.7" stroke="#2ee6a8" stroke-width="22.4" stroke-linecap="round" opacity="0.507"/>
    <path d="M177.6,242.7L178.2,243.9" stroke="#2ee6a8" stroke-width="22.6" stroke-linecap="round" opacity="0.511"/>
    <path d="M178.2,243.9L178.7,245.0" stroke="#2ee6a8" stroke-width="22.7" stroke-linecap="round" opacity="0.514"/>
    <path d="M178.7,245.0L179.3,246.0" stroke="#2ee6a8" stroke-width="22.8" stroke-linecap="round" opacity="0.518"/>
    <path d="M179.3,246.0L179.8,247.0" stroke="#2ee6a8" stroke-width="23.0" stroke-linecap="round" opacity="0.522"/>
    <path d="M179.8,247.0L180.3,248.0" stroke="#2ee6a8" stroke-width="23.1" stroke-linecap="round" opacity="0.525"/>
    <path d="M180.3,248.0L180.8,248.9" stroke="#2ee6a8" stroke-width="23.2" stroke-linecap="round" opacity="0.529"/>
    <path d="M180.8,248.9L181.2,249.7" stroke="#2ee6a8" stroke-width="23.3" stroke-linecap="round" opacity="0.532"/>
    <path d="M181.2,249.7L181.6,250.5" stroke="#2ee6a8" stroke-width="23.5" stroke-linecap="round" opacity="0.536"/>
    <path d="M181.6,250.5L182.0,251.3" stroke="#2ee6a8" stroke-width="23.6" stroke-linecap="round" opacity="0.540"/>
    <path d="M182.0,251.3L182.3,252.0" stroke="#2ee6a8" stroke-width="23.7" stroke-linecap="round" opacity="0.543"/>
    <path d="M182.3,252.0L182.5,252.7" stroke="#2ee6a8" stroke-width="23.9" stroke-linecap="round" opacity="0.547"/>
    <path d="M182.5,252.7L182.7,253.4" stroke="#2ee6a8" stroke-width="24.0" stroke-linecap="round" opacity="0.550"/>
    <path d="M182.7,253.4L182.9,254.1" stroke="#2ee6a8" stroke-width="24.1" stroke-linecap="round" opacity="0.554"/>
    <path d="M182.9,254.1L183.0,254.7" stroke="#2ee6a8" stroke-width="24.2" stroke-linecap="round" opacity="0.558"/>
    <path d="M183.0,254.7L183.1,255.4" stroke="#2ee6a8" stroke-width="24.4" stroke-linecap="round" opacity="0.561"/>
    <path d="M183.1,255.4L183.1,256.0" stroke="#2ee6a8" stroke-width="24.5" stroke-linecap="round" opacity="0.565"/>
    <path d="M183.1,256.0L183.1,256.6" stroke="#2ee6a8" stroke-width="24.6" stroke-linecap="round" opacity="0.569"/>
    <path d="M183.1,256.6L183.0,257.3" stroke="#2ee6a8" stroke-width="24.8" stroke-linecap="round" opacity="0.572"/>
    <path d="M183.0,257.3L182.9,257.9" stroke="#2ee6a8" stroke-width="24.9" stroke-linecap="round" opacity="0.576"/>
    <path d="M182.9,257.9L182.7,258.6" stroke="#2ee6a8" stroke-width="25.0" stroke-linecap="round" opacity="0.580"/>
    <path d="M182.7,258.6L182.5,259.3" stroke="#2ee6a8" stroke-width="25.1" stroke-linecap="round" opacity="0.583"/>
    <path d="M182.5,259.3L182.3,260.0" stroke="#2ee6a8" stroke-width="25.3" stroke-linecap="round" opacity="0.587"/>
    <path d="M182.3,260.0L182.0,260.7" stroke="#2ee6a8" stroke-width="25.4" stroke-linecap="round" opacity="0.590"/>
    <path d="M182.0,260.7L181.6,261.5" stroke="#2ee6a8" stroke-width="25.5" stroke-linecap="round" opacity="0.594"/>
    <path d="M181.6,261.5L181.2,262.3" stroke="#2ee6a8" stroke-width="25.7" stroke-linecap="round" opacity="0.598"/>
    <path d="M181.2,262.3L180.8,263.1" stroke="#2ee6a8" stroke-width="25.8" stroke-linecap="round" opacity="0.601"/>
    <path d="M180.8,263.1L180.3,264.0" stroke="#2ee6a8" stroke-width="25.9" stroke-linecap="round" opacity="0.605"/>
    <path d="M180.3,264.0L179.8,265.0" stroke="#2ee6a8" stroke-width="26.1" stroke-linecap="round" opacity="0.609"/>
    <path d="M179.8,265.0L179.3,266.0" stroke="#2ee6a8" stroke-width="26.2" stroke-linecap="round" opacity="0.612"/>
    <path d="M179.3,266.0L178.7,267.0" stroke="#2ee6a8" stroke-width="26.3" stroke-linecap="round" opacity="0.616"/>
    <path d="M178.7,267.0L178.2,268.1" stroke="#2ee6a8" stroke-width="26.4" stroke-linecap="round" opacity="0.619"/>
    <path d="M178.2,268.1L177.6,269.3" stroke="#2ee6a8" stroke-width="26.6" stroke-linecap="round" opacity="0.623"/>
    <path d="M177.6,269.3L177.0,270.5" stroke="#2ee6a8" stroke-width="26.7" stroke-linecap="round" opacity="0.627"/>
    <path d="M177.0,270.5L176.4,271.8" stroke="#2ee6a8" stroke-width="26.8" stroke-linecap="round" opacity="0.630"/>
    <path d="M176.4,271.8L175.7,273.2" stroke="#2ee6a8" stroke-width="27.0" stroke-linecap="round" opacity="0.634"/>
    <path d="M175.7,273.2L175.1,274.7" stroke="#2ee6a8" stroke-width="27.1" stroke-linecap="round" opacity="0.638"/>
    <path d="M175.1,274.7L174.5,276.2" stroke="#2ee6a8" stroke-width="27.2" stroke-linecap="round" opacity="0.641"/>
    <path d="M174.5,276.2L173.9,277.8" stroke="#2ee6a8" stroke-width="27.3" stroke-linecap="round" opacity="0.645"/>
    <path d="M173.9,277.8L173.3,279.4" stroke="#2ee6a8" stroke-width="27.5" stroke-linecap="round" opacity="0.648"/>
    <path d="M173.3,279.4L172.8,281.2" stroke="#2ee6a8" stroke-width="27.6" stroke-linecap="round" opacity="0.652"/>
    <path d="M172.8,281.2L172.2,283.0" stroke="#2ee6a8" stroke-width="27.7" stroke-linecap="round" opacity="0.656"/>
    <path d="M172.2,283.0L171.7,284.9" stroke="#2ee6a8" stroke-width="27.9" stroke-linecap="round" opacity="0.659"/>
    <path d="M171.7,284.9L171.3,286.9" stroke="#2ee6a8" stroke-width="28.0" stroke-linecap="round" opacity="0.663"/>
    <path d="M171.3,286.9L170.8,288.9" stroke="#2ee6a8" stroke-width="28.1" stroke-linecap="round" opacity="0.666"/>
    <path d="M170.8,288.9L170.5,291.1" stroke="#2ee6a8" stroke-width="28.2" stroke-linecap="round" opacity="0.670"/>
    <path d="M170.5,291.1L170.1,293.3" stroke="#2ee6a8" stroke-width="28.4" stroke-linecap="round" opacity="0.674"/>
    <path d="M170.1,293.3L169.9,295.6" stroke="#2ee6a8" stroke-width="28.5" stroke-linecap="round" opacity="0.677"/>
    <path d="M169.9,295.6L169.7,297.9" stroke="#2ee6a8" stroke-width="28.6" stroke-linecap="round" opacity="0.681"/>
    <path d="M169.7,297.9L169.5,300.4" stroke="#2ee6a8" stroke-width="28.8" stroke-linecap="round" opacity="0.685"/>
    <path d="M169.5,300.4L169.5,302.9" stroke="#2ee6a8" stroke-width="28.9" stroke-linecap="round" opacity="0.688"/>
    <path d="M169.5,302.9L169.5,305.4" stroke="#2ee6a8" stroke-width="29.0" stroke-linecap="round" opacity="0.692"/>
    <path d="M169.5,305.4L169.6,308.0" stroke="#2ee6a8" stroke-width="29.2" stroke-linecap="round" opacity="0.696"/>
    <path d="M169.6,308.0L169.8,310.7" stroke="#2ee6a8" stroke-width="29.3" stroke-linecap="round" opacity="0.699"/>
    <path d="M169.8,310.7L170.1,313.5" stroke="#2ee6a8" stroke-width="29.4" stroke-linecap="round" opacity="0.703"/>
    <path d="M170.1,313.5L170.5,316.3" stroke="#2ee6a8" stroke-width="29.5" stroke-linecap="round" opacity="0.706"/>
    <path d="M170.5,316.3L171.0,319.1" stroke="#2ee6a8" stroke-width="29.7" stroke-linecap="round" opacity="0.710"/>
    <path d="M171.0,319.1L171.6,322.0" stroke="#2ee6a8" stroke-width="29.8" stroke-linecap="round" opacity="0.714"/>
    <path d="M171.6,322.0L172.3,324.9" stroke="#2ee6a8" stroke-width="29.9" stroke-linecap="round" opacity="0.717"/>
    <path d="M172.3,324.9L173.2,327.9" stroke="#2ee6a8" stroke-width="30.1" stroke-linecap="round" opacity="0.721"/>
    <path d="M173.2,327.9L174.1,330.8" stroke="#2ee6a8" stroke-width="30.2" stroke-linecap="round" opacity="0.725"/>
    <path d="M174.1,330.8L175.2,333.8" stroke="#2ee6a8" stroke-width="30.3" stroke-linecap="round" opacity="0.728"/>
    <path d="M175.2,333.8L176.4,336.9" stroke="#2ee6a8" stroke-width="30.4" stroke-linecap="round" opacity="0.732"/>
    <path d="M176.4,336.9L177.7,339.9" stroke="#2ee6a8" stroke-width="30.6" stroke-linecap="round" opacity="0.735"/>
    <path d="M177.7,339.9L179.2,342.9" stroke="#2ee6a8" stroke-width="30.7" stroke-linecap="round" opacity="0.739"/>
    <path d="M179.2,342.9L180.8,346.0" stroke="#2ee6a8" stroke-width="30.8" stroke-linecap="round" opacity="0.743"/>
    <path d="M180.8,346.0L182.5,349.0" stroke="#2ee6a8" stroke-width="31.0" stroke-linecap="round" opacity="0.746"/>
    <path d="M182.5,349.0L184.4,352.0" stroke="#2ee6a8" stroke-width="31.1" stroke-linecap="round" opacity="0.750"/>
    <path d="M184.4,352.0L186.4,355.0" stroke="#2ee6a8" stroke-width="31.2" stroke-linecap="round" opacity="0.754"/>
    <path d="M186.4,355.0L188.5,358.0" stroke="#2ee6a8" stroke-width="31.3" stroke-linecap="round" opacity="0.757"/>
    <path d="M188.5,358.0L190.8,360.9" stroke="#2ee6a8" stroke-width="31.5" stroke-linecap="round" opacity="0.761"/>
    <path d="M190.8,360.9L193.2,363.8" stroke="#2ee6a8" stroke-width="31.6" stroke-linecap="round" opacity="0.764"/>
    <path d="M193.2,363.8L195.8,366.7" stroke="#2ee6a8" stroke-width="31.7" stroke-linecap="round" opacity="0.768"/>
    <path d="M195.8,366.7L198.5,369.5" stroke="#2ee6a8" stroke-width="31.9" stroke-linecap="round" opacity="0.772"/>
    <path d="M198.5,369.5L201.3,372.2" stroke="#2ee6a8" stroke-width="32.0" stroke-linecap="round" opacity="0.775"/>
    <path d="M201.3,372.2L204.3,374.8" stroke="#2ee6a8" stroke-width="32.1" stroke-linecap="round" opacity="0.779"/>
    <path d="M204.3,374.8L207.4,377.4" stroke="#2ee6a8" stroke-width="32.3" stroke-linecap="round" opacity="0.782"/>
    <path d="M207.4,377.4L210.7,379.9" stroke="#2ee6a8" stroke-width="32.4" stroke-linecap="round" opacity="0.786"/>
    <path d="M210.7,379.9L214.0,382.3" stroke="#2ee6a8" stroke-width="32.5" stroke-linecap="round" opacity="0.790"/>
    <path d="M214.0,382.3L217.6,384.7" stroke="#2ee6a8" stroke-width="32.6" stroke-linecap="round" opacity="0.793"/>
    <path d="M217.6,384.7L221.2,386.9" stroke="#2ee6a8" stroke-width="32.8" stroke-linecap="round" opacity="0.797"/>
    <path d="M221.2,386.9L224.9,389.0" stroke="#2ee6a8" stroke-width="32.9" stroke-linecap="round" opacity="0.801"/>
    <path d="M224.9,389.0L228.8,390.9" stroke="#2ee6a8" stroke-width="33.0" stroke-linecap="round" opacity="0.804"/>
    <path d="M228.8,390.9L232.8,392.8" stroke="#2ee6a8" stroke-width="33.2" stroke-linecap="round" opacity="0.808"/>
    <path d="M232.8,392.8L236.9,394.5" stroke="#2ee6a8" stroke-width="33.3" stroke-linecap="round" opacity="0.811"/>
    <path d="M236.9,394.5L241.1,396.1" stroke="#2ee6a8" stroke-width="33.4" stroke-linecap="round" opacity="0.815"/>
    <path d="M241.1,396.1L245.4,397.6" stroke="#2ee6a8" stroke-width="33.5" stroke-linecap="round" opacity="0.819"/>
    <path d="M245.4,397.6L249.8,398.9" stroke="#2ee6a8" stroke-width="33.7" stroke-linecap="round" opacity="0.822"/>
    <path d="M249.8,398.9L254.2,400.0" stroke="#2ee6a8" stroke-width="33.8" stroke-linecap="round" opacity="0.826"/>
    <path d="M254.2,400.0L258.8,401.0" stroke="#2ee6a8" stroke-width="33.9" stroke-linecap="round" opacity="0.830"/>
    <path d="M258.8,401.0L263.4,401.9" stroke="#2ee6a8" stroke-width="34.1" stroke-linecap="round" opacity="0.833"/>
    <path d="M263.4,401.9L268.1,402.5" stroke="#2ee6a8" stroke-width="34.2" stroke-linecap="round" opacity="0.837"/>
    <path d="M268.1,402.5L272.9,403.0" stroke="#2ee6a8" stroke-width="34.3" stroke-linecap="round" opacity="0.841"/>
    <path d="M272.9,403.0L277.7,403.3" stroke="#2ee6a8" stroke-width="34.4" stroke-linecap="round" opacity="0.844"/>
    <path d="M277.7,403.3L282.6,403.5" stroke="#2ee6a8" stroke-width="34.6" stroke-linecap="round" opacity="0.848"/>
    <path d="M282.6,403.5L287.5,403.4" stroke="#2ee6a8" stroke-width="34.7" stroke-linecap="round" opacity="0.851"/>
    <path d="M287.5,403.4L292.4,403.2" stroke="#2ee6a8" stroke-width="34.8" stroke-linecap="round" opacity="0.855"/>
    <path d="M292.4,403.2L297.4,402.8" stroke="#2ee6a8" stroke-width="35.0" stroke-linecap="round" opacity="0.859"/>
    <path d="M297.4,402.8L302.4,402.2" stroke="#2ee6a8" stroke-width="35.1" stroke-linecap="round" opacity="0.862"/>
    <path d="M302.4,402.2L307.4,401.4" stroke="#2ee6a8" stroke-width="35.2" stroke-linecap="round" opacity="0.866"/>
    <path d="M307.4,401.4L312.4,400.4" stroke="#2ee6a8" stroke-width="35.3" stroke-linecap="round" opacity="0.869"/>
    <path d="M312.4,400.4L317.3,399.3" stroke="#2ee6a8" stroke-width="35.5" stroke-linecap="round" opacity="0.873"/>
    <path d="M317.3,399.3L322.3,397.9" stroke="#2ee6a8" stroke-width="35.6" stroke-linecap="round" opacity="0.877"/>
    <path d="M322.3,397.9L327.3,396.3" stroke="#2ee6a8" stroke-width="35.7" stroke-linecap="round" opacity="0.880"/>
    <path d="M327.3,396.3L332.2,394.5" stroke="#2ee6a8" stroke-width="35.9" stroke-linecap="round" opacity="0.884"/>
    <path d="M332.2,394.5L337.0,392.6" stroke="#2ee6a8" stroke-width="36.0" stroke-linecap="round" opacity="0.888"/>
    <path d="M337.0,392.6L341.9,390.4" stroke="#2ee6a8" stroke-width="36.1" stroke-linecap="round" opacity="0.891"/>
    <path d="M341.9,390.4L346.6,388.1" stroke="#2ee6a8" stroke-width="36.3" stroke-linecap="round" opacity="0.895"/>
    <path d="M346.6,388.1L351.3,385.6" stroke="#2ee6a8" stroke-width="36.4" stroke-linecap="round" opacity="0.898"/>
    <path d="M351.3,385.6L355.9,382.8" stroke="#2ee6a8" stroke-width="36.5" stroke-linecap="round" opacity="0.902"/>
    <path d="M355.9,382.8L360.5,379.9" stroke="#2ee6a8" stroke-width="36.6" stroke-linecap="round" opacity="0.906"/>
    <path d="M360.5,379.9L364.9,376.8" stroke="#2ee6a8" stroke-width="36.8" stroke-linecap="round" opacity="0.909"/>
    <path d="M364.9,376.8L369.2,373.6" stroke="#2ee6a8" stroke-width="36.9" stroke-linecap="round" opacity="0.913"/>
    <path d="M369.2,373.6L373.5,370.1" stroke="#2ee6a8" stroke-width="37.0" stroke-linecap="round" opacity="0.917"/>
    <path d="M373.5,370.1L377.6,366.5" stroke="#2ee6a8" stroke-width="37.2" stroke-linecap="round" opacity="0.920"/>
    <path d="M377.6,366.5L381.6,362.7" stroke="#2ee6a8" stroke-width="37.3" stroke-linecap="round" opacity="0.924"/>
    <path d="M381.6,362.7L385.4,358.8" stroke="#2ee6a8" stroke-width="37.4" stroke-linecap="round" opacity="0.927"/>
    <path d="M385.4,358.8L389.2,354.7" stroke="#2ee6a8" stroke-width="37.5" stroke-linecap="round" opacity="0.931"/>
    <path d="M389.2,354.7L392.7,350.4" stroke="#2ee6a8" stroke-width="37.7" stroke-linecap="round" opacity="0.935"/>
    <path d="M392.7,350.4L396.2,346.0" stroke="#2ee6a8" stroke-width="37.8" stroke-linecap="round" opacity="0.938"/>
    <path d="M396.2,346.0L399.4,341.5" stroke="#2ee6a8" stroke-width="37.9" stroke-linecap="round" opacity="0.942"/>
    <path d="M399.4,341.5L402.5,336.8" stroke="#2ee6a8" stroke-width="38.1" stroke-linecap="round" opacity="0.946"/>
    <path d="M402.5,336.8L405.5,332.0" stroke="#2ee6a8" stroke-width="38.2" stroke-linecap="round" opacity="0.949"/>
    <path d="M405.5,332.0L408.2,327.1" stroke="#2ee6a8" stroke-width="38.3" stroke-linecap="round" opacity="0.953"/>
    <path d="M408.2,327.1L410.8,322.1" stroke="#2ee6a8" stroke-width="38.5" stroke-linecap="round" opacity="0.957"/>
    <path d="M410.8,322.1L413.2,316.9" stroke="#2ee6a8" stroke-width="38.6" stroke-linecap="round" opacity="0.960"/>
    <path d="M413.2,316.9L415.4,311.7" stroke="#2ee6a8" stroke-width="38.7" stroke-linecap="round" opacity="0.964"/>
    <path d="M415.4,311.7L417.4,306.4" stroke="#2ee6a8" stroke-width="38.8" stroke-linecap="round" opacity="0.967"/>
    <path d="M417.4,306.4L419.1,301.0" stroke="#2ee6a8" stroke-width="39.0" stroke-linecap="round" opacity="0.971"/>
    <path d="M419.1,301.0L420.7,295.5" stroke="#2ee6a8" stroke-width="39.1" stroke-linecap="round" opacity="0.975"/>
    <path d="M420.7,295.5L422.1,290.0" stroke="#2ee6a8" stroke-width="39.2" stroke-linecap="round" opacity="0.978"/>
    <path d="M422.1,290.0L423.3,284.4" stroke="#2ee6a8" stroke-width="39.4" stroke-linecap="round" opacity="0.982"/>
    <path d="M423.3,284.4L424.3,278.8" stroke="#2ee6a8" stroke-width="39.5" stroke-linecap="round" opacity="0.985"/>
    <path d="M424.3,278.8L425.0,273.1" stroke="#2ee6a8" stroke-width="39.6" stroke-linecap="round" opacity="0.989"/>
    <path d="M425.0,273.1L425.6,267.4" stroke="#2ee6a8" stroke-width="39.7" stroke-linecap="round" opacity="0.993"/>
    <path d="M425.6,267.4L425.9,261.7" stroke="#2ee6a8" stroke-width="39.9" stroke-linecap="round" opacity="0.996"/>
    <path d="M425.9,261.7L426.0,256.0" stroke="#2ee6a8" stroke-width="40.0" stroke-linecap="round" opacity="1.000"/>
  </g>
  <circle cx="426.0" cy="256.0" r="27" fill="#eafff7"/>
</svg>
